PathFileType	4	(X/Y/Z)	C:/Users/opensim2020/Desktop/walking_exp_matlab/subject01_walking05_straight_04.trc	
DataRate	CameraRate	NumFrames	NumMarkers	Units	OrigDataRate	OrigDataStartFrame	OrigNumFrames	
100.00	100.00	7	43	mm	100.00	2916	283	
Frame#	Time	LFHD			RFHD			LBHD			RBHD			C7			T10			CLAV			STRN			RBAK			LSHO			LUPA			LELB			LFRM			LWRA			LWRB			LFIN			RSHO			RUPA			RELB			RFRM			RWRA			RWRB			RFIN			LASI			RASI			LPSI			RPSI			LTHI			LKNE			LTIB			LANK			LHEE			LTOE			RTHI			RKNE			RTIB			RANK			RHEE			RTOE			*39			*40			*41			*42			
		X1	Y1	Z1	X2	Y2	Z2	X3	Y3	Z3	X4	Y4	Z4	X5	Y5	Z5	X6	Y6	Z6	X7	Y7	Z7	X8	Y8	Z8	X9	Y9	Z9	X10	Y10	Z10	X11	Y11	Z11	X12	Y12	Z12	X13	Y13	Z13	X14	Y14	Z14	X15	Y15	Z15	X16	Y16	Z16	X17	Y17	Z17	X18	Y18	Z18	X19	Y19	Z19	X20	Y20	Z20	X21	Y21	Z21	X22	Y22	Z22	X23	Y23	Z23	X24	Y24	Z24	X25	Y25	Z25	X26	Y26	Z26	X27	Y27	Z27	X28	Y28	Z28	X29	Y29	Z29	X30	Y30	Z30	X31	Y31	Z31	X32	Y32	Z32	X33	Y33	Z33	X34	Y34	Z34	X35	Y35	Z35	X36	Y36	Z36	X37	Y37	Z37	X38	Y38	Z38	X39	Y39	Z39	X40	Y40	Z40	X41	Y41	Z41	X42	Y42	Z42	X43	Y43	Z43	

142	1.410	1501.43152	139.66896	1666.33374	1389.48218	117.11794	1671.60315	1484.52429	254.69270	1619.26257	1365.03125	233.95039	1623.56189	1446.56531	284.94269	1419.88245	1439.51465	303.31888	1126.10559	1447.13623	137.29825	1360.40894	1456.12793	85.33352	1208.88232	1374.02734	326.72302	1218.56775	1606.82043	204.98013	1389.78540	1698.59094	219.27628	1210.93103	1720.07751	202.48215	1059.27649	1749.41687	112.60316	986.56311	1737.41467	-16.18703	936.36414	1759.17432	26.78066	900.40125	1774.94897	-51.06875	873.46289	1294.82935	205.26865	1381.14514	1203.29395	278.35199	1181.71936	1202.47986	289.23309	1060.27954	1169.95911	288.03766	941.94189	1182.81421	235.03867	809.39801	1146.32080	279.74811	821.74084	1148.71631	263.47943	736.00641	1558.24854	140.99939	918.90527	1344.79102	117.68412	928.70630	1487.02942	319.89905	937.41833	1341.90991	303.41153	940.25934	1603.69983	236.51080	592.34021	1592.52063	279.07501	462.01401	1599.63916	418.29437	329.81485	1550.44348	556.10260	155.01741	1497.25439	603.70422	163.68401	1531.36829	468.66647	33.88187	1284.34143	102.48915	603.76190	1317.13379	56.27516	454.81851	1305.98328	76.06817	278.81711	1355.53003	69.57754	73.92630	1403.33740	118.64207	34.84044	1366.32947	-71.43600	38.34375	1410.83606	131.66306	1705.02820	-3101.93652	1973.09949	1023.31219	-3140.59375	2012.55664	1022.10077			 
143	1.420	1499.49866	130.06688	1667.42920	1387.55042	107.40246	1672.57275	1482.56299	245.00119	1620.12634	1363.08716	224.06117	1624.23792	1444.84607	274.90707	1420.48596	1438.55139	292.79468	1126.89990	1445.68665	127.11261	1361.64209	1455.10669	75.43734	1209.96533	1372.89453	315.98099	1219.06592	1605.20398	195.17857	1390.98425	1696.69897	210.31638	1211.98193	1717.56885	195.19580	1060.30664	1746.85095	106.59769	985.94434	1734.99841	-21.15016	933.05493	1756.46033	22.73072	897.91168	1772.59521	-54.54142	869.28809	1293.34607	195.10449	1382.03906	1202.03894	266.35385	1181.91553	1200.96240	275.90848	1060.46790	1168.45215	273.64145	942.29230	1180.99023	219.01834	810.37830	1144.96997	264.56360	822.01190	1147.22681	247.80719	736.47168	1556.45984	130.19797	919.76569	1343.31897	106.68507	930.09753	1486.10938	308.57504	938.57709	1340.92456	292.10715	942.02313	1603.90552	220.09782	591.72559	1594.10718	260.51184	461.20538	1600.87390	403.49142	333.11789	1551.89685	545.45270	161.80659	1497.77063	590.92194	173.37286	1530.58972	467.94543	34.19569	1283.48840	92.85110	604.19745	1316.54810	49.58369	453.93576	1305.82300	71.88360	278.46909	1355.96375	68.93496	73.85616	1403.33801	118.54642	35.01882	1367.40234	-72.19926	37.55170	1408.78735	122.23731	1705.93066	-3101.94165	1973.01611	1023.70148	-3140.64551	2012.53174	1022.03723			 
144	1.430	1497.63843	120.55080	1668.40417	1385.70923	97.73566	1673.38586	1480.63391	235.30528	1620.83289	1361.19897	214.29190	1624.80823	1443.06311	264.68307	1421.21631	1437.55139	282.45035	1127.72791	1444.40857	116.95328	1362.64343	1454.13330	64.64527	1211.28699	1371.41052	305.23431	1219.62354	1603.68506	185.55089	1392.14612	1694.98560	201.39844	1213.01196	1714.91589	188.08420	1061.21423	1744.26648	100.92603	985.11279	1732.51941	-25.72650	929.45728	1754.01233	18.97336	895.35870	1769.96985	-57.74395	864.77039	1291.86768	184.59349	1382.94470	1200.80249	254.34650	1182.27222	1199.42615	262.57196	1060.89490	1166.94849	259.11472	942.73773	1179.91980	203.84908	811.08429	1143.12793	248.17857	822.55963	1145.74463	231.69621	737.04272	1554.59961	119.00799	921.04846	1341.86365	95.82180	931.55615	1484.85889	297.62259	939.73236	1339.77075	281.24316	943.63263	1604.33923	203.16495	591.01678	1595.56458	241.51599	460.37534	1602.02649	387.74518	336.42920	1553.50854	533.48718	168.63539	1498.47876	576.59430	183.05122	1530.07654	466.98013	34.72438	1282.43762	84.45405	604.29156	1315.87781	43.31981	453.59576	1305.97949	67.96976	278.24356	1356.43677	68.33537	74.01952	1403.32520	118.49342	35.13812	1367.84497	-72.75262	36.91406	1406.79468	112.76115	1706.72461	-3101.82910	1973.12830	1023.28668	-3140.60303	2012.61230	1021.92987			 
145	1.440	1495.85010	111.00776	1669.31714	1383.92114	88.21547	1674.09106	1478.85742	225.63647	1621.41650	1359.45435	204.59500	1625.15271	1441.38953	254.51895	1421.95886	1436.35535	272.14636	1128.50171	1443.40820	106.94572	1363.66797	1453.25867	54.77365	1212.06824	1369.81909	294.55960	1220.35425	1602.24756	176.02826	1393.12939	1693.44250	192.52641	1213.88501	1712.17798	181.21048	1061.93066	1741.66309	95.61349	984.10425	1730.09595	-30.01295	925.67426	1751.68774	15.49029	892.64154	1767.39600	-60.49800	860.03632	1290.71423	174.09016	1383.95410	1199.52734	242.31508	1182.75806	1197.82336	249.15184	1061.32715	1165.41602	244.40039	943.25378	1178.87402	188.35912	811.93280	1141.57666	232.07259	823.10760	1144.26086	214.92880	737.78754	1552.83813	108.38364	922.29004	1340.49365	85.14802	932.70264	1483.38538	286.96719	940.67572	1338.23792	270.35275	944.81006	1604.66772	185.93311	590.13806	1596.42542	222.40341	459.29285	1602.89758	371.08762	339.67184	1555.40601	520.33075	174.91629	1500.23889	561.67792	192.22255	1529.89856	464.35019	36.18150	1281.55383	77.29641	604.54443	1315.17822	37.60220	453.22253	1306.16675	64.28188	278.13904	1356.60913	67.93938	74.14729	1403.47681	118.31235	35.21590	1368.20374	-73.22248	36.58831	1404.89380	103.19151	1707.49329	-3101.81396	1973.12231	1023.44550	-3140.73169	2012.47925	1022.00934			 
146	1.450	1494.18225	101.52212	1670.25684	1382.23755	78.66512	1674.74951	1477.27649	216.05093	1621.96692	1357.87146	194.92003	1625.42627	1439.88599	244.50299	1422.68494	1435.03564	262.16721	1129.30408	1442.38452	96.80466	1364.44019	1452.52100	44.67244	1212.91345	1367.97351	283.97226	1221.20703	1600.97766	166.57275	1394.01538	1692.13757	183.83221	1214.68396	1709.31458	174.61615	1062.36926	1739.07690	90.63094	982.78809	1727.71008	-34.01680	921.70215	1749.05457	12.43577	889.73352	1764.85620	-62.88367	855.16351	1289.66797	163.21277	1384.88416	1198.10535	230.18617	1183.37988	1196.28174	235.80608	1061.76331	1163.83130	229.52812	943.76355	1177.68018	172.07755	813.02802	1140.21277	215.64731	823.75714	1143.00488	197.67859	738.61237	1551.29822	98.08992	923.49512	1339.22705	74.71658	933.71332	1481.77393	276.68423	941.30823	1336.76221	259.72568	945.93042	1604.94153	168.72618	589.39923	1597.12012	202.97144	458.23645	1603.50134	353.57611	342.61859	1557.00989	506.09692	180.83005	1502.61304	546.71808	200.94571	1529.94482	459.07022	39.86604	1280.85962	71.06970	604.58057	1314.43396	32.17102	452.70145	1305.93726	61.27653	277.95462	1356.84302	67.56593	74.18549	1403.45142	118.22215	35.32898	1368.57849	-73.53410	36.09038	1403.08630	93.73219	1708.19446	-3101.81836	1973.18433	1023.26666	-3140.66675	2012.51245	1021.92554			 
147	1.460	1492.60034	91.99915	1671.22290	1380.65320	69.07949	1675.40784	1475.78113	206.38049	1622.54602	1356.33240	185.16360	1625.70764	1438.41455	234.58040	1423.24268	1433.54065	252.01402	1130.00305	1441.60034	86.84447	1365.21387	1451.88074	34.74105	1213.69153	1365.95776	273.48941	1222.11450	1599.83411	157.14938	1394.74707	1691.01782	175.33163	1215.36804	1706.48486	168.16486	1062.53442	1736.41992	85.86724	981.13074	1725.43372	-37.74797	917.53290	1746.72925	9.47866	886.65820	1762.09570	-64.95731	849.85150	1288.63184	152.47339	1385.80334	1196.54626	217.97212	1183.97241	1194.64880	222.46846	1062.22461	1162.31323	214.79196	944.34821	1176.53503	155.53735	814.18079	1138.79077	199.09230	824.40802	1141.78418	180.09985	739.13037	1550.12708	88.13851	924.53119	1338.01990	64.51978	934.41174	1480.20898	266.72107	941.65131	1335.34888	249.43971	946.82251	1604.94214	151.69933	588.78961	1597.61499	183.52202	457.39401	1604.15796	335.20581	345.02042	1558.27686	491.14905	186.89694	1504.70557	531.36401	209.21855	1530.09778	450.56558	44.15622	1280.18066	65.09122	604.52612	1313.53625	27.32543	452.20953	1305.54187	58.98293	277.61526	1356.96924	67.30564	74.04158	1403.58093	118.12889	35.49961	1368.74390	-73.90848	35.75117	1401.37671	84.33027	1708.88208	-3101.86011	1973.16016	1023.20691	-3140.71680	2012.48901	1022.04364			 
148	1.470	1491.14404	82.43230	1672.18347	1379.17151	59.42913	1676.15686	1474.45374	196.71835	1623.26392	1354.97546	175.46721	1626.11719	1437.14221	224.72388	1423.93372	1431.88000	241.90288	1130.68384	1440.86328	77.04205	1365.87610	1451.35352	24.79847	1214.50452	1363.82446	263.03696	1223.08752	1598.88831	147.85493	1395.37219	1689.86255	167.18671	1215.92615	1703.65283	161.76582	1062.53369	1733.86145	81.44144	979.31616	1723.16833	-41.18823	913.12177	1744.02478	6.99293	883.38129	1759.38574	-66.59676	844.42297	1287.76001	141.54166	1386.67529	1194.84875	205.61426	1184.60535	1192.97180	209.20757	1062.60352	1160.70740	199.64981	944.70856	1175.44214	138.72205	815.41144	1137.26440	182.21489	824.96027	1140.22131	161.73772	740.47772	1549.20325	78.47901	925.34357	1336.97900	54.53085	934.93976	1478.81238	257.04498	941.70807	1333.99316	239.43117	947.66083	1604.84387	135.09451	588.55725	1598.10571	163.92494	456.82260	1605.22070	316.04144	346.84213	1558.98804	475.61523	193.18086	1505.43713	515.55017	216.46440	1530.92529	438.44937	49.32846	1279.38440	59.46264	604.47278	1312.42090	23.13139	451.48322	1304.80371	56.99847	277.16147	1356.95691	67.06350	73.98597	1403.62695	118.14380	35.61530	1368.84155	-74.18302	35.46729	1399.80481	74.88830	1709.55322	-3101.87866	1973.01526	1023.32910	-3140.73218	2012.46277	1022.02869			 
